<svg xmlns="http://www.w3.org/2000/svg" width="90" height="24" viewBox="0 0 90 24">
    <g fill="none" fill-rule="evenodd">
        <path fill="#FFF" d="M88.093 0h-1.594c-2.043 0-2.17.215-2.333.557l-3.154 7.61c-1.057 2.513-2.132 5.223-2.562 6.641-.378-1.418-1.078-3.303-2.548-6.785L72.748.557C72.552.107 71.761 0 70.04 0h-1.792c-1.756 0-2.098.144-2.098.503v22.92c0 .413.342.521 2.17.521h.987c1.773 0 2.294-.108 2.294-.52V9.819h.124s.163.645.414 1.22l3.64 8.526c.159.376.358.538 2.042.538h1.076c1.72 0 1.864-.126 2.008-.538l3.316-8.22c.323-.755.557-1.526.557-1.526h.124v13.605c0 .412.342.52 2.223.52l.968-.017c1.757 0 2.258-.09 2.258-.503V.503c0-.36-.501-.503-2.258-.503zM61.616.503c0-.36-.502-.503-2.26-.503h-1.02c-1.849 0-2.17.144-2.17.503v22.92c0 .413.321.521 2.17.521h1.02c1.758 0 2.26-.108 2.26-.52V.503zM51.88 0c.485 0 .573.054.573 1.741v1.562c0 1.633-.124 1.83-.573 1.83h-5.413v18.29c0 .413-.52.521-2.33.521h-.951c-1.864 0-2.17-.108-2.17-.52V5.134h-5.432c-.447 0-.574-.144-.574-1.83V1.74C35.01 0 35.101 0 35.584 0H51.88z"/>
        <path fill="#EB0028" d="M11.437 18.81H1.362c-.376 0-.717.162-.968.396a1.4 1.4 0 0 0-.394.987v2.37c0 .376.143.717.394.968s.592.395.968.395h10.075V18.81zm16.78.413a1.368 1.368 0 0 0-.969-.412H17.174v5.115h10.074c.378 0 .717-.144.969-.395.25-.251.393-.592.393-.969v-2.37c0-.376-.143-.717-.393-.969zm0-9.423a1.352 1.352 0 0 0-.969-.395H17.174v5.116h10.074c.378 0 .717-.162.969-.413.25-.251.393-.592.393-.97V10.77c0-.378-.143-.718-.393-.97zm-16.78-.395H1.362c-.376 0-.717.144-.968.395-.25.252-.394.592-.394.97v2.369c0 .377.143.718.394.97.251.25.592.412.968.412h10.075V9.405zm15.811-4.289H1.362c-.376 0-.717-.162-.968-.413A1.357 1.357 0 0 1 0 3.733V1.365C0 .988.143.646.394.395S.986 0 1.362 0h25.886c.378 0 .717.144.969.395.25.251.393.593.393.97v2.368c0 .378-.143.718-.393.97-.252.251-.59.413-.969.413z"/>
    </g>
</svg>
