<?xml version="1.0" encoding="utf-8"?>
<!-- Generator: Adobe Illustrator 23.0.1, SVG Export Plug-In . SVG Version: 6.00 Build 0)  -->
<svg version="1.1" id="Layer_1" xmlns="http://www.w3.org/2000/svg" xmlns:xlink="http://www.w3.org/1999/xlink" x="0px" y="0px"
	 viewBox="0 0 22.8 23.6" style="enable-background:new 0 0 22.8 23.6;" xml:space="preserve">
<style type="text/css">
	.st0{fill-rule:evenodd;clip-rule:evenodd;fill:#FFFFFF;}
</style>
<g>
	<path class="st0" d="M4.4,13L3.9,5.1H21l-0.6,2.1H8.9C8.5,7.3,8.1,7.6,8.1,8c0,0.4,0.3,0.8,0.7,0.8c0,0,0,0,0.1,0h11L18.6,13H4.4
		L4.4,13z M18.6,20c0,1.1-0.9,2.1-2.1,2.1c-1.1,0-2.1-0.9-2.1-2.1c0-1.1,0.9-2.1,2.1-2.1C17.7,18,18.6,18.9,18.6,20L18.6,20z
		 M9.4,20c0,1.1-0.9,2.1-2.1,2.1c-1.1,0-2.1-0.9-2.1-2.1c0-1.1,0.9-2.1,2.1-2.1S9.4,18.9,9.4,20L9.4,20z M19.9,14l2.8-9.4
		c0.1-0.4-0.1-0.8-0.5-0.9c-0.1,0-0.1,0-0.2,0H3.8L3.6,0.7C3.6,0.3,3.3,0,2.9,0H0.8C0.4,0,0,0.3,0,0.7s0.3,0.8,0.7,0.8
		c0,0,0.1,0,0.1,0h1.4l0.2,2.9c0,0,0,0,0,0c0,0,0,0,0,0.1L3,15.7c0.1,1,0.7,1.8,1.6,2.1c-0.5,0.6-0.8,1.4-0.8,2.2
		c0,2,1.6,3.6,3.6,3.6c2,0,3.6-1.6,3.6-3.6c0-0.8-0.3-1.5-0.7-2.1h3.4C13.2,18.6,13,19.3,13,20c0,2,1.6,3.6,3.6,3.6
		c2,0,3.6-1.6,3.6-3.6c0-0.8-0.3-1.5-0.7-2.1h0.8c0.4,0,0.7-0.3,0.7-0.7s-0.3-0.7-0.7-0.7c0,0,0,0,0,0H5.5c-0.5,0-0.9-0.4-1-0.9
		l-0.1-1.1h14.7C19.5,14.5,19.8,14.3,19.9,14z"/>
</g>
</svg>
