<?xml version="1.0" encoding="utf-8"?>
<!-- Generator: Adobe Illustrator 23.0.1, SVG Export Plug-In . SVG Version: 6.00 Build 0)  -->
<svg version="1.1" id="Layer_1" xmlns="http://www.w3.org/2000/svg" xmlns:xlink="http://www.w3.org/1999/xlink" x="0px" y="0px"
	 viewBox="0 0 40 34" style="enable-background:new 0 0 40 34;" xml:space="preserve">
<style type="text/css">
	.st0{fill:none;}
	.st1{fill:#004691;}
</style>
<g>
	<polygon class="st0" points="29.3,15.3 29.3,19.4 35.9,19.4 34.9,15.3 	"/>
	<path class="st0" d="M21.9,3.9c0.6-0.7,0.4-1.7-0.3-2.3c-0.7-0.6-1.7-0.4-2.3,0.3c-0.6,0.8-1.6,3.5-2.2,5.4
		c0.4-0.2,0.9-0.5,1.4-0.9C20.9,4.9,21.7,4.2,21.9,3.9z"/>
	<path class="st0" d="M34,12.6h-4.7V14h6.1C35.4,13.2,34.8,12.6,34,12.6z"/>
	<path class="st0" d="M11.4,1.4c-0.4,0-0.7,0.1-1,0.3C9.7,2.2,9.5,3.3,10.1,4c0.2,0.3,0.9,1,3.4,2.5c0.5,0.3,1,0.6,1.4,1
		c-0.6-1.9-1.6-4.6-2.2-5.4C12.4,1.6,11.9,1.4,11.4,1.4z"/>
	<path class="st0" d="M16.3,17.2c-0.3-0.6-0.4-1-0.4-1.1c-0.1,0.2-0.2,0.5-0.3,1.1l-0.1,0.4h0.9L16.3,17.2z"/>
	<path class="st0" d="M11.9,15.9c-0.1-0.1-0.3-0.2-0.6-0.2H11v1.2h0.3c0.5,0,0.8-0.2,0.8-0.6C12.1,16.1,12,15.9,11.9,15.9z"/>
	<path class="st0" d="M37.3,24c0,0.4,0.3,0.7,0.7,0.7h0.7v-1.4h-1.4V24z"/>
	<path class="st0" d="M33.4,27.3c-1.5,0-2.7,1.2-2.7,2.7s1.2,2.7,2.7,2.7s2.7-1.2,2.7-2.7S34.9,27.3,33.4,27.3z M33.4,31.3
		c-0.7,0-1.3-0.6-1.2-1.4c0-0.6,0.5-1.1,1.2-1.2c0.7,0,1.3,0.6,1.3,1.3S34.1,31.3,33.4,31.3z"/>
	<path class="st0" d="M11.3,27.3c-1.5,0-2.7,1.2-2.7,2.7s1.2,2.7,2.7,2.7S14,31.5,14,30S12.8,27.3,11.3,27.3z M11.3,31.3
		c-0.7,0-1.3-0.6-1.2-1.4c0-0.6,0.5-1.1,1.2-1.2c0.7,0,1.3,0.6,1.3,1.3S12,31.3,11.3,31.3z"/>
	<path class="st1" d="M13.7,19.4c0.1,0,0.2,0,0.4,0h0.1c0.2,0,0.3,0,0.4,0h0.1c0.1,0,0.1-0.1,0.1-0.1l0.4-1h1.6l0.4,1
		c0,0.1,0.1,0.1,0.1,0.1s0.2,0,0.4,0h0.1c0.1,0,0.2,0,0.3,0h0.1v-0.1l-1.8-4.4c-0.1-0.1-0.1-0.1-0.1-0.1h-0.1c0,0-0.2,0-0.3,0
		c-0.2,0-0.3,0-0.3-0.1h-0.1c-0.1,0-0.1,0.1-0.1,0.1l-1.7,4.4v0.1C13.7,19.4,13.7,19.4,13.7,19.4z M15.6,17.2
		c0.1-0.6,0.2-0.9,0.3-1.1c0,0.1,0.1,0.5,0.4,1.1l0.1,0.4h-0.9L15.6,17.2z"/>
	<path class="st1" d="M33.4,28.7c-0.7,0.1-1.2,0.6-1.2,1.2c-0.1,0.8,0.5,1.4,1.2,1.4c0.7,0,1.3-0.6,1.3-1.3S34.1,28.7,33.4,28.7z"/>
	<path class="st1" d="M7.7,15.7c0.4,0,0.7,0.1,1,0.3h0.1h0.1c0-0.1,0.1-0.1,0.1-0.2l0.2-0.2c0-0.1,0.1-0.1,0.1-0.2v-0.1l-0.1-0.1
		C9,15.1,8.7,15,8.5,14.9c-0.2-0.1-0.5-0.1-0.8-0.1c-0.5,0-0.9,0.1-1.2,0.2c-0.3,0.2-0.6,0.4-0.8,0.8c-0.2,0.4-0.3,0.8-0.3,1.3
		c0,0.8,0.1,1.4,0.5,1.8c0.3,0.4,0.9,0.6,1.7,0.6c0.3,0,0.6,0,0.9-0.1c0.2,0,0.5-0.1,0.7-0.2l0.1-0.1c0,0,0,0,0-0.1v-2.1l-0.1-0.1
		c0,0-0.1,0-0.2,0H7.5c-0.1,0-0.1,0-0.1,0s0,0,0,0.1c0,0.1,0,0.2,0,0.3v0.1c0,0.1,0,0.2,0,0.3v0.1h0.1h0.7v0.9
		c-0.2,0.1-0.3,0.1-0.5,0.1c-0.8,0-1.2-0.5-1.2-1.5c0-0.5,0.1-0.9,0.3-1.1C7,15.8,7.3,15.7,7.7,15.7z"/>
	<path class="st1" d="M13.2,16.1c0-0.4-0.2-0.8-0.5-1c-0.3-0.2-0.8-0.3-1.5-0.3c0,0-1,0-1,0.1c0,0-0.1,0-0.2,0s-0.1,0-0.1,0.1v4.5
		c0,0.1,0,0.1,0,0.1c0.1,0,0.1,0,0.2,0c0.1,0,0.2,0,0.3,0h0.1c0.1,0,0.2,0,0.3,0c0.1,0,0.2,0,0.2,0v-0.1v-1.6h0.3
		c0.1-0.1,0.2,0,0.3,0c0.1,0,0.1,0.1,0.2,0.2l0.9,1.3c0,0.1,0,0.1,0.1,0.1c0,0,0.1,0,0.3,0h0.5c0.1,0,0.2,0,0.2,0
		c-0.1-0.1-0.1-0.1-0.1-0.1s0,0,0-0.1v-0.1l-1-1.4c-0.1-0.1-0.2-0.2-0.3-0.3C12.9,17.2,13.2,16.7,13.2,16.1z M11.3,16.9H11v-1.2h0.3
		c0.3,0,0.5,0.1,0.6,0.2c0.1,0,0.2,0.2,0.2,0.4C12.1,16.7,11.8,16.9,11.3,16.9z"/>
	<path class="st1" d="M2,24.6h8c0.3,0,0.6-0.3,0.6-0.6s-0.3-0.6-0.6-0.6H2c-0.3,0-0.6,0.3-0.6,0.6S1.7,24.6,2,24.6z"/>
	<path class="st1" d="M37.2,19.4l-1-4.1c0.3-0.1,0.5-0.3,0.5-0.6V14c0-1.4-1.2-2.6-2.6-2.6h-4.7V10c0-0.7-0.6-1.3-1.3-1.3h-8.8
		l5.3-2.1c0.3-0.1,0.5-0.5,0.3-0.8c-0.1-0.3-0.5-0.5-0.8-0.3l-4.4,1.7c1.3-0.9,2.6-1.8,3.1-2.5c1-1.3,0.7-3.1-0.5-4.1
		c-1.3-1-3.1-0.7-4.1,0.5c-0.7,0.9-1.7,3.6-2.3,5.4c-0.6-1.8-1.5-4.5-2.3-5.4c-1-1.3-2.8-1.5-4.1-0.6C8.2,1.5,8,3.3,8.9,4.6
		c0.5,0.7,1.8,1.6,3.1,2.5L7.9,5.4c-0.3-0.1-0.7,0-0.8,0.3C7,6,7.1,6.4,7.4,6.5l5.3,2.1H4c-0.7,0-1.3,0.6-1.3,1.3v11.4
		C2.7,21.7,3,22,3.3,22s0.6-0.3,0.6-0.6V10h24v11.4c0,0.3,0.3,0.6,0.6,0.6s0.6-0.3,0.6-0.6v-0.7h7.4c0.9,0,1.7,0.6,1.9,1.4h-1.9
		c-0.3,0-0.6,0.3-0.6,0.6V24c0,1.1,0.9,2,2,2h0.7v2.8H37c-0.6-1.6-2.1-2.7-3.7-2.7c-1.7,0-3.2,1.1-3.7,2.7h-0.3V24
		c0-0.3-0.3-0.6-0.6-0.6s-0.6,0.3-0.6,0.6v4.7h-13C14.5,27.1,13,26,11.4,26c-1.7,0-3.2,1.1-3.7,2.7H4v-1.4h2.7
		c0.3,0,0.6-0.3,0.6-0.6S7,26.1,6.7,26.1h-6c-0.3,0-0.6,0.3-0.6,0.6s0.3,0.6,0.6,0.6h2v1.4C2.7,29.4,3.3,30,4,30h3.4
		c0,2.2,1.8,4,4,4c2.2,0,4-1.8,4-4h14.1c0,2.2,1.8,4,4,4s4-1.8,4-4h2c0.3,0,0.6-0.3,0.6-0.6v-6.7C40,21,38.8,19.7,37.2,19.4z
		 M13.5,6.5C11,5,10.3,4.3,10.1,4c-0.6-0.7-0.4-1.8,0.3-2.3c0.3-0.2,0.6-0.3,1-0.3c0.5,0,1,0.2,1.3,0.7c0.6,0.8,1.6,3.5,2.2,5.4
		C14.5,7.1,14,6.8,13.5,6.5z M17.1,7.3c0.6-1.9,1.6-4.6,2.2-5.4c0.6-0.7,1.6-0.9,2.3-0.3c0.7,0.6,0.9,1.6,0.3,2.3
		c-0.2,0.3-1,1-3.4,2.5C18,6.8,17.5,7.1,17.1,7.3z M29.3,12.6H34c0.8,0,1.4,0.6,1.4,1.4h-6.1V12.6z M29.3,19.4v-4.1h5.6l1,4.1H29.3z
		 M11.3,32.7c-1.5,0-2.7-1.2-2.7-2.7s1.2-2.7,2.7-2.7S14,28.5,14,30S12.8,32.7,11.3,32.7z M33.4,32.7c-1.5,0-2.7-1.2-2.7-2.7
		s1.2-2.7,2.7-2.7s2.7,1.2,2.7,2.7S34.9,32.7,33.4,32.7z M38.7,24.7H38c-0.4,0-0.7-0.3-0.7-0.7v-0.7h1.4V24.7z"/>
	<path class="st1" d="M24.9,18.7c-0.3,0-0.7-0.2-1.1-0.4c-0.1,0-0.1,0-0.1,0l-0.1,0.1c0,0,0,0.1-0.1,0.2l-0.1,0.2
		c-0.1,0.2-0.1,0.2-0.1,0.3l0.1,0.1c0.2,0.1,0.4,0.2,0.7,0.3c0.3,0.1,0.6,0.1,0.9,0.1s0.6-0.1,0.9-0.2c0.3-0.1,0.5-0.3,0.6-0.5
		c0.1-0.2,0.2-0.4,0.2-0.7s-0.1-0.6-0.3-0.8c-0.2-0.2-0.6-0.4-1-0.6c-0.2-0.1-0.4-0.1-0.5-0.2c-0.1-0.1-0.2-0.1-0.2-0.2
		c-0.1,0-0.1-0.1-0.1-0.2c0-0.1,0.1-0.2,0.2-0.3c0.1-0.1,0.2-0.1,0.4-0.1c0.3,0,0.5,0,0.8,0.2c0.1,0,0.1,0,0.1,0l0.1-0.1
		c0,0,0.1-0.1,0.1-0.2l0.1-0.1c0.1-0.1,0.1-0.2,0.1-0.3l-0.1-0.1c-0.2-0.1-0.4-0.2-0.6-0.3c-0.2-0.1-0.4-0.1-0.7-0.1
		c-0.3,0-0.6,0-0.7,0.2c-0.3,0.1-0.5,0.3-0.6,0.5c-0.1,0.2-0.2,0.4-0.2,0.7c0,0.2,0,0.4,0.1,0.6c0.1,0.2,0.2,0.3,0.4,0.4
		c0.2,0.2,0.4,0.3,0.7,0.4c0.3,0.1,0.5,0.2,0.6,0.3c0.1,0,0.2,0.2,0.2,0.3c0,0.2-0.1,0.3-0.2,0.4C25.2,18.7,25.1,18.7,24.9,18.7z"/>
	<path class="st1" d="M21.3,14.8H18c-0.1,0-0.1,0-0.1,0s0,0,0,0.1c0,0.1,0,0.2,0,0.3v0.2c0,0.1,0,0.1,0,0.2v0.1H18h1.1v3.7
		c0,0.1,0,0.1,0,0.1c0.1,0,0.1,0,0.2,0c0,0,0.2,0,0.3,0h0.1c0.1,0,0.2,0,0.3,0s0.2,0,0.2,0v-0.1v-3.7h1.1c0.1,0,0.1,0,0.1,0
		s0,0,0-0.1c0-0.1,0-0.2,0-0.3v-0.1c0-0.2,0-0.2,0-0.3C21.4,14.9,21.4,14.8,21.3,14.8z"/>
	<path class="st1" d="M11.3,28.7c-0.7,0.1-1.2,0.6-1.2,1.2c-0.1,0.8,0.5,1.4,1.2,1.4s1.3-0.6,1.3-1.3S12,28.7,11.3,28.7z"/>
	<path class="st1" d="M22.3,19.4c0.1,0,0.2,0,0.3,0c0.1,0,0.2,0,0.2,0v-0.1v-4.4c0-0.1,0-0.1,0-0.1c-0.1,0-0.1,0-0.2,0
		c-0.1,0-0.2,0-0.3,0c-0.2,0-0.3,0-0.4,0c-0.1,0-0.2,0-0.2,0v0.1v4.4c0,0.1,0,0.1,0,0.1c0.1,0,0.1,0,0.2,0
		C22,19.4,22.1,19.4,22.3,19.4L22.3,19.4z"/>
	<path class="st1" d="M16,26.7c0,0.3,0.3,0.6,0.6,0.6H26c0.3,0,0.6-0.3,0.6-0.6s-0.3-0.6-0.6-0.6h-9.4C16.3,26.1,16,26.4,16,26.7z"
		/>
	<path class="st1" d="M15.7,14.4h0.2c0,0,0.1,0,0.2,0l0.1-0.1l0.8-1v-0.1c0-0.1-0.1-0.1-0.1-0.1s-0.1,0-0.2,0c0,0-0.1,0-0.2,0
		c0,0,0,0,0,0c-0.2,0-0.3,0-0.3,0l-0.1,0.1l-0.7,1v0.1C15.4,14.4,15.5,14.4,15.7,14.4z"/>
</g>
</svg>
