<?xml version="1.0" encoding="utf-8"?>
<!-- Generator: Adobe Illustrator 23.0.1, SVG Export Plug-In . SVG Version: 6.00 Build 0)  -->
<svg version="1.1" id="Layer_1" xmlns="http://www.w3.org/2000/svg" xmlns:xlink="http://www.w3.org/1999/xlink" x="0px" y="0px"
	 viewBox="0 0 13 16" style="enable-background:new 0 0 13 16;" xml:space="preserve">
<style type="text/css">
	.st0{fill-rule:evenodd;clip-rule:evenodd;fill:#4A4A4A;}
</style>
<path class="st0" d="M5.6,0C4.8,0,4.1,0.7,4.1,1.5v0C3.9,1.4,3.6,1.3,3.4,1.3C2.6,1.3,2,1.9,2,2.6v0.8C1.4,3,0.6,3.2,0.2,3.8
	C0.1,4,0,4.3,0,4.5v7l0,0c0.2,3,1.8,4.5,5,4.5c1.9,0,3.6-1,4.5-2.5c0.1-0.1,0.4-0.6,0.7-1.1l0-0.1c1-1.5,1.5-2.3,1.5-2.5
	c0.2-0.5,0.5-0.7,0.6-0.8c0.3-0.2,0.4-0.5,0.6-0.7L13,8.2l0-0.2c0-0.1,0.1-0.6-0.2-1c-0.2-0.3-0.5-0.4-0.8-0.4
	c-0.5,0-1.1,0.2-1.6,0.5c-0.4,0.3-0.8,0.6-1.1,1V3.3c0-0.8-0.7-1.5-1.5-1.5C7.6,1.8,7.3,1.9,7,2.1V1.5C7,0.7,6.4,0,5.6,0 M5.6,0.9
	c0.3,0,0.5,0.2,0.5,0.5v5.8c0,0.4,0.3,0.6,0.6,0.6s0.6-0.3,0.6-0.6c0,0,0,0,0,0v-4c0-0.3,0.3-0.5,0.5-0.5c0.3,0,0.5,0.2,0.5,0.5v5.7
	c0,0.1,0,0.2,0,0.3c0,0.2,0,0.4,0.1,0.5c0.1,0.1,0.2,0.1,0.3,0.1c0.3,0,0.7-0.2,0.9-0.5c0.4-0.7,0.9-1.1,1.2-1.3
	c0.3-0.2,0.7-0.4,1.1-0.4c0.1,0,0.1,0,0.1,0c0.1,0.1,0.1,0.2,0,0.3c-0.1,0.2-0.2,0.3-0.3,0.4c-0.3,0.2-0.6,0.6-0.8,1.1
	c-0.1,0.2-1,1.6-1.6,2.5C9,12.4,8.8,12.9,8.7,13c-0.7,1.2-2.1,2-3.7,2c-2.7,0-3.9-1-4-3.6v-7c0-0.2,0.2-0.4,0.4-0.4
	c0.2,0,0.4,0.2,0.4,0.4v3.2c0,0.4,0.3,0.6,0.7,0.6C2.7,8.3,3,8.1,3,7.7V2.6c0-0.2,0.2-0.4,0.4-0.4c0.2,0,0.4,0.2,0.4,0.4
	c0,0,0,0,0,0v4.6c0,0.4,0.3,0.6,0.6,0.6C4.8,7.9,5,7.6,5,7.2l0,0V1.5C5,1.2,5.3,0.9,5.6,0.9"/>
</svg>
