<?xml version="1.0" encoding="utf-8"?>
<!-- Generator: Adobe Illustrator 23.0.1, SVG Export Plug-In . SVG Version: 6.00 Build 0)  -->
<svg version="1.1" id="Layer_1" xmlns="http://www.w3.org/2000/svg" xmlns:xlink="http://www.w3.org/1999/xlink" x="0px" y="0px"
	 viewBox="0 0 23.6 21.9" style="enable-background:new 0 0 23.6 21.9;" xml:space="preserve">
<style type="text/css">
	.st0{fill-rule:evenodd;clip-rule:evenodd;fill:#4A4A4A;}
</style>
<path class="st0" d="M6.4,0C3.1,0,0.4,2.8,0,6.5c0,0.2-0.1,1,0.2,2.5c0.5,2.1,1.6,4,3.3,5.5l8.2,7.5l8.4-7.5
	c1.6-1.5,2.8-3.4,3.3-5.5c0.3-1.4,0.2-2.3,0.2-2.5c-0.3-3.8-3-6.5-6.4-6.5c-2.2,0-4.3,1.2-5.4,3.1C10.6,1.2,8.6,0,6.4,0 M6.4,1.5
	c1.7,0,3.1,0.9,4,2.4L11.7,6L13,3.9c0.9-1.5,2.5-2.4,4.2-2.4c2.6,0,4.6,2.2,4.9,5.2v0.1v0.1c0,0,0.1,0.7-0.2,1.9
	c-0.4,1.8-1.4,3.4-2.8,4.7L11.7,20l-7.2-6.6c-1.4-1.3-2.4-2.9-2.8-4.7C1.4,7.5,1.5,6.8,1.5,6.8V6.7V6.6C1.8,3.7,3.8,1.5,6.4,1.5
	 M7.3,2.8c-2.5,0-4.5,2-4.5,4.5c0,0.3,0.2,0.5,0.5,0.5s0.5-0.2,0.5-0.5l0,0c0-2,1.6-3.6,3.6-3.6c0.3,0,0.5-0.2,0.5-0.4
	C7.7,3,7.6,2.8,7.3,2.8L7.3,2.8"/>
</svg>
