<?xml version="1.0" encoding="utf-8"?>
<!-- Generator: Adobe Illustrator 23.0.1, SVG Export Plug-In . SVG Version: 6.00 Build 0)  -->
<svg version="1.1" id="Layer_1" xmlns="http://www.w3.org/2000/svg" xmlns:xlink="http://www.w3.org/1999/xlink" x="0px" y="0px"
	 viewBox="0 0 16.8 24" style="enable-background:new 0 0 16.8 24;" xml:space="preserve">
<style type="text/css">
	.st0{fill:#FFFFFF;}
</style>
<g>
	<path class="st0" d="M8.4,0c2.2,0,4.3,0.9,5.9,2.5c2.9,2.9,3.3,8.4,0.8,11.8L8.4,24l-6.7-9.7c-2.5-3.3-2.1-8.9,0.8-11.8
		C4,0.9,6.2,0,8.4,0z M8.4,1.8c-1.8,0-3.4,0.7-4.7,1.9c-2.3,2.3-2.6,6.7-0.6,9.4l5.3,7.7l5.3-7.6c2-2.7,1.7-7.1-0.6-9.4
		C11.8,2.5,10.1,1.8,8.4,1.8z M8.5,5.3c1.7,0,3.1,1.4,3.1,3.1c0,1.7-1.4,3.1-3.1,3.1c-1.7,0-3.1-1.4-3.1-3.1
		C5.4,6.6,6.8,5.3,8.5,5.3z M8.5,6.8C7.7,6.8,7,7.5,7,8.3s0.7,1.5,1.5,1.5S10,9.1,10,8.3S9.3,6.8,8.5,6.8z"/>
</g>
</svg>
