<?xml version="1.0" encoding="utf-8"?>
<!-- Generator: Adobe Illustrator 23.0.1, SVG Export Plug-In . SVG Version: 6.00 Build 0)  -->
<svg version="1.1" id="Layer_1" xmlns="http://www.w3.org/2000/svg" xmlns:xlink="http://www.w3.org/1999/xlink" x="0px" y="0px"
	 viewBox="0 0 16 15" style="enable-background:new 0 0 16 15;" xml:space="preserve">
<style type="text/css">
	.st0{fill-rule:evenodd;clip-rule:evenodd;fill:#FFFFFF;}
</style>
<g>
	<path class="st0" d="M8.5,12c0.8,0,1.5,0.7,1.5,1.5S9.3,15,8.5,15h-7C0.7,15,0,14.3,0,13.5S0.7,12,1.5,12H8.5z M8.5,6
		C9.3,6,10,6.7,10,7.5S9.3,9,8.5,9h-7C0.7,9,0,8.3,0,7.5S0.7,6,1.5,6H8.5z M14.5,0C15.3,0,16,0.7,16,1.5S15.3,3,14.5,3l0,0h-13
		C0.7,3,0,2.3,0,1.5S0.7,0,1.5,0H14.5z"/>
</g>
</svg>
