<?xml version="1.0" encoding="utf-8"?>
<!-- Generator: Adobe Illustrator 23.0.1, SVG Export Plug-In . SVG Version: 6.00 Build 0)  -->
<svg version="1.1" id="Layer_1" xmlns="http://www.w3.org/2000/svg" xmlns:xlink="http://www.w3.org/1999/xlink" x="0px" y="0px"
	 viewBox="0 0 11.9 18" style="enable-background:new 0 0 11.9 18;" xml:space="preserve">
<style type="text/css">
	.st0{fill-rule:evenodd;clip-rule:evenodd;fill:#FFFFFF;}
</style>
<g>
	<path class="st0" d="M7.7,0C7.5,0,7.3,0.1,7.2,0.2L0.1,9.1C0,9.3,0,9.6,0.1,9.8c0.1,0.2,0.3,0.4,0.6,0.4l4.6,0L4,17.3
		c-0.1,0.3,0.1,0.6,0.4,0.7c0.3,0.1,0.6,0,0.8-0.2l6.7-9.6c0.1-0.2,0.2-0.4,0-0.7c-0.1-0.2-0.3-0.3-0.6-0.3l-4.1,0l1.2-6.3
		C8.4,0.4,8.2,0.1,7.8,0C7.8,0,7.7,0,7.7,0 M6.8,2.5L6,6.9C5.9,7.5,6.3,8.1,6.9,8.2c0.1,0,0.1,0,0.2,0l3.2,0l-4.8,7l0.8-4.8
		C6.4,9.8,6,9.2,5.4,9.1c-0.1,0-0.1,0-0.2,0L1.7,9L6.8,2.5"/>
</g>
</svg>
